<?xml version="1.0" standalone="no"?>
<!DOCTYPE svg PUBLIC "-//W3C//DTD SVG 20010904//EN"
 "http://www.w3.org/TR/2001/REC-SVG-20010904/DTD/svg10.dtd">
<svg version="1.0" xmlns="http://www.w3.org/2000/svg"
 width="500.000000pt" height="500.000000pt" viewBox="0 0 500.000000 500.000000"
 preserveAspectRatio="xMidYMid meet">

<g transform="translate(0.000000,500.000000) scale(0.100000,-0.100000)"
fill="#000000" stroke="none">
<path d="M2360 3933 c-236 -37 -400 -100 -565 -218 -260 -185 -434 -452 -499
-767 -21 -101 -21 -326 -1 -444 80 -454 426 -837 869 -961 l99 -28 19 -45
c167 -391 177 -408 233 -394 30 7 56 57 166 317 29 70 59 127 66 127 7 0 57
14 110 31 115 37 229 92 333 162 105 70 272 244 338 350 289 466 245 1039
-113 1460 -176 208 -453 360 -735 402 -87 14 -259 18 -320 8z m347 -88 c151
-29 292 -86 418 -170 474 -315 651 -935 410 -1442 -114 -242 -309 -438 -549
-552 -74 -36 -194 -76 -202 -68 -3 3 53 143 125 310 72 168 131 311 131 318 0
32 -41 77 -96 106 -247 132 -771 114 -942 -33 -33 -28 -42 -42 -42 -67 0 -19
55 -159 130 -331 71 -165 127 -302 125 -305 -9 -8 -145 39 -219 76 -161 80
-313 205 -417 342 -239 317 -294 763 -140 1132 144 345 469 610 841 684 92 19
330 18 427 0z"/>
<path id="eye-left" d="M1828 3050 c-57 -31 -82 -74 -86 -150 -3 -55 0 -70 20 -100 97 -143
328 -78 328 91 0 134 -143 221 -262 159z"/>
<path id="eye-right" d="M2958 3050 c-56 -30 -82 -73 -86 -146 -3 -43 1 -70 12 -92 62 -120
250 -122 313 -2 38 71 28 147 -25 204 -54 57 -144 72 -214 36z"/>
</g>
</svg>
